<svg xmlns="http://www.w3.org/2000/svg" width="300" height="300" viewBox="0 0 300 300">
  <g fill="none" transform="translate(8 49)">
    <g transform="translate(187.43 .832)">
      <polygon fill="#FF6900" points="74.295 170.716 .989 128.193 25.952 117.258 96.202 157.013"/>
      <polygon fill="#FFF" fill-opacity=".82" points="74.295 170.716 .989 128.193 25.952 117.258 96.202 157.013"/>
      <g transform="translate(.272)">
        <polygon fill="#FFE2D0" points="50.359 42.115 50.359 153.168 72.338 140.493 72.338 33.324"/>
        <path fill="#FF6900" d="M53.4563245,83.0286673 L35.4963177,62.8025436 C26.9333553,68.0424811 19.7578746,72.4701457 13.9698755,76.0855381 C4.67457232,83.6377916 8.44335678,108.82031 22.5724757,116.115036 C27.9981747,119.357124 31.0129391,121.126954 31.6167686,121.424525 L82.3607618,141.556638 L95.0742806,134.198366 L62.6954696,93.7835337 L37.8012955,89.3785919 L53.4563245,83.0286673 Z" transform="rotate(180 51.977 102.18)"/>
        <polygon fill="#FFE2D0" points="50.359 85.971 50.359 94.72 72.338 82.045 72.338 77.18"/>
        <polygon fill="#FFF" points="5.904 48.977 27.377 34.346 27.377 59.122"/>
        <path fill="#FF6900" d="M28.090697,60.2486748 L28.090697,32.9966694 L4.47159042,49.0894723 L28.090697,60.2486748 Z M26.6633657,35.6964279 L26.6633657,57.9958988 L7.3356672,48.864609 L26.6633657,35.6964279 Z"/>
        <polygon fill="#FF6900" points="7.565 95.663 17.751 89.933 35.734 99.365 24.551 111.11"/>
        <polygon fill="#FFF" points="27.337 138.832 49.786 151.926 49.786 41.324 57.14 45.702 38.866 13.669 20.151 24.139 27.337 28.295"/>
        <path fill="#FFE2D0" d="M58.186419,47.4357471 L39.1346937,12.7007861 L18.7077409,24.1287224 L26.6229302,28.7067931 L26.6230745,139.241886 L50.4995104,153.1685 L50.4993858,42.5795033 L58.186419,47.4357471 Z M38.5961228,14.6371381 L55.6405859,44.683538 L49.0723747,39.6961356 L49.0722501,150.68408 L28.0500659,138.42213 L28.0502102,27.8830193 L21.593704,24.1494731 L38.5961228,14.6371381 Z"/>
        <polygon fill="#FFF" points="58.186 47.436 78.664 32.31 60.941 .975 38.645 13.788"/>
        <path fill="#FFE2D0" d="M79.7032942,32.2115327 L61.2055198,2.02808178e-14 L37.6681626,13.526237 L56.6355221,46.1861255 L58.186419,47.4357471 L79.7032942,32.2115327 Z M60.6758146,1.95037768 L77.6461299,31.6066156 L58.0303013,45.4663577 L39.6222334,14.0496339 L60.6758146,1.95037768 Z"/>
        <polygon fill="#FF6900" points="50.504 67.753 72.291 55.217 89.983 65.111 89.271 66.879 69.3 78.542"/>
        <polygon fill="#FFF" points="69.253 78.44 89.271 66.363 89.271 83.651 69.253 95.998"/>
        <path fill="#FF6900" d="M89.9845903,84.0496854 L89.9845903,65.099253 L68.539903,78.0373397 L68.539903,96.5083919 L69.075617,96.9454608 L89.9845903,84.0496854 Z M88.5572886,67.6276375 L88.5572886,83.253346 L69.9669436,94.7199055 L69.9669436,78.8434968 L88.5572886,67.6276375 Z"/>
        <polygon fill="#FFF" points="69.223 79.14 51.212 68.937 51.212 86.232 69.3 96.254"/>
        <path fill="#FF6900" d="M50.4981409,67.7123175 L50.4981409,86.6519693 L69.075617,96.9454608 L70.0113879,95.7045715 L69.9346974,78.7233534 L50.4981409,67.7123175 Z M51.9250943,70.1608033 L68.5112652,79.558016 L68.5807191,95.0405353 L51.9250943,85.8112489 L51.9250943,70.1608033 Z"/>
        <path fill="#FFF" d="M25.929897,72.2992386 L25.929897,54.7886278 C16.1142684,46.9087393 8.96014225,45.3623524 4.46751868,50.1494673 C-2.78370489,57.6666296 1.51586328,75.9855282 8.58896124,85.4768401 C13.3043599,91.804381 19.0846718,96.6580671 25.929897,100.037898 L25.929897,81.1806508 L18.7419619,76.9077509 C16.4719115,75.5583094 15.0806629,73.1127711 15.0806629,70.4719151 C15.0806629,69.09436 16.1973916,67.9776316 17.5749463,67.9776316 C18.0023587,67.9776316 18.4226006,68.0874625 18.7953576,68.2965883 L25.929897,72.2992386 L25.929897,72.2992386 Z"/>
        <path fill="#FF6900" d="M3.95394736,49.6540648 C0.374908737,53.3643649 -0.722607003,59.7026536 0.451683678,67.1835033 C1.51368219,73.9489932 4.38083206,81.0241672 8.01679638,85.9032278 C12.798982,92.3203895 18.6667937,97.2475483 25.6139828,100.677724 L26.6434648,101.186031 L26.6434648,80.7747072 L19.1065853,76.294376 C17.0528847,75.0735447 15.7942307,72.861081 15.7942307,70.4719151 C15.7942307,69.4884531 16.5914842,68.6911994 17.5749463,68.6911994 C17.880084,68.6911994 18.1801025,68.7696096 18.4462207,68.9189084 L26.6434648,73.5177618 L26.6434648,54.4464154 L26.3766053,54.2321833 C16.4078173,46.2293398 8.92320707,44.5530371 4.09276402,49.5089474 L3.95394736,49.6540648 Z M25.2162501,55.1325889 L25.2162501,71.0813058 L19.1444944,67.6742677 C18.6650986,67.4053154 18.1246333,67.2640637 17.5749463,67.2640637 C15.803299,67.2640637 14.367095,68.7002674 14.367095,70.4719151 L14.3689943,70.6487339 C14.4296936,73.4732923 15.9416811,76.073239 18.3773384,77.5211262 L25.2162501,81.5869273 L25.2162501,98.8742974 L25.1108248,98.8187419 C18.8614262,95.5227592 13.5466089,90.935283 9.1611261,85.0504524 C5.66764134,80.3625838 2.88855479,73.5047206 1.8615551,66.9621917 C0.765109344,59.977255 1.74465386,54.1353055 4.84866992,50.7849476 L4.98783782,50.6377775 C9.06524047,46.2931015 15.6528683,47.61304 24.9156621,54.8941873 L25.2162501,55.1325889 Z"/>
        <path fill="#FFF" d="M74.7292091,115.52039 L74.7292091,100.829664 C67.2101331,94.978818 60.9583883,94.1193774 55.9739742,98.2513424 C46.6786712,105.803596 51.5557971,129.712016 65.6849161,137.006742 C71.1106152,140.24883 74.1253794,142.018659 74.7292091,142.316231 L74.7292091,124.948337 L67.4596421,120.260703 C65.2281646,118.82178 63.8799748,116.348248 63.8799748,113.693066 C63.8799748,112.315511 64.9967037,111.198783 66.3742583,111.198783 C66.8016707,111.198783 67.2219127,111.308613 67.5946695,111.517739 L74.7292091,115.52039 L74.7292091,115.52039 Z" transform="rotate(180 62.97 119.001)"/>
        <path fill="#FF6900" d="M55.5243659,97.3727193 C45.4995248,105.517708 51.2005254,130.00666 65.3579183,137.315984 L70.8297743,140.570697 C72.8012981,141.733913 73.9828113,142.413975 74.3847546,142.616826 L75.4104284,142.987714 L75.4431327,124.234602 L67.8467016,119.336196 C65.8189835,118.028663 64.5938983,115.780992 64.5938983,113.368258 C64.5938983,112.384796 65.391152,111.587542 66.374614,111.587542 C66.6797518,111.587542 66.9797704,111.665953 67.2458884,111.815252 L75.4431327,116.414105 L75.4431327,100.15596 L75.1677778,99.9416972 C67.4890947,93.966655 60.9342667,93.0163548 55.6778178,97.2473825 L55.5243659,97.3727193 Z M74.0156535,100.855945 L74.0156535,113.977506 L67.9441621,110.570611 C67.4647663,110.301659 66.924301,110.160407 66.374614,110.160407 C64.6029668,110.160407 63.1667627,111.596611 63.1667627,113.368258 L63.1686741,113.549093 C63.2284853,116.377873 64.6887914,118.997996 67.0732935,120.535595 L74.0156535,125.012595 L74.0156535,140.780065 L72.8994393,140.131707 C71.3780937,139.242279 69.0897577,137.885005 66.0512921,136.069392 C52.8281632,129.240891 47.3884492,106.374033 56.1543074,98.7079698 L56.4297313,98.4758881 C61.0218115,94.6691587 66.7741725,95.3711877 73.8561016,100.733864 L74.0156535,100.855945 Z" transform="rotate(180 62.954 118.817)"/>
        <polygon fill="#FFF" points="25.68 107.237 8.439 97.274 8.439 112.937 25.68 122.725"/>
        <path fill="#FF6900" d="M7.48781385,95.6255434 L7.48781385,113.491121 L26.6314136,124.358978 L26.6314136,106.688304 L7.48781385,95.6255434 Z M9.02847179,98.4003971 L25.0899648,107.681511 L25.0899648,121.613892 L9.02847179,112.495675 L9.02847179,98.4003971 Z"/>
      </g>
    </g>
    <g transform="matrix(-1 0 0 1 115.122 .357)">
      <polygon fill="#FF6900" points="90.913 176.9 6.592 129.189 28.14 121.242 108.865 166.539"/>
      <polygon fill="#FFF" fill-opacity=".82" points="90.913 176.9 6.592 129.189 28.14 121.242 108.865 166.539"/>
      <g transform="translate(0 9.276)">
        <polygon fill="#FF6900" points="25.978 34.398 25.978 125.103 43.93 114.751 43.93 27.218"/>
        <polygon fill="#FF6900" points="25.978 70.219 25.978 77.364 43.93 67.012 43.93 63.039"/>
        <polygon fill="#FFF" points="7.174 113.394 25.51 124.089 25.51 33.752 31.517 37.328 16.591 11.164 1.305 19.716 7.174 23.11"/>
        <path fill="#FF6900" d="M32.3715881,38.744104 L16.8107067,10.3736235 L0.126580652,19.7076211 L6.59147126,23.4468528 L6.59158919,113.728622 L26.0931502,125.103465 L26.0930484,34.7776688 L32.3715881,38.744104 Z M16.3708181,11.955178 L30.2922273,36.4961817 L24.9275083,32.4226201 L24.9274065,123.074264 L7.75711316,113.059069 L7.75723104,22.7740189 L2.48374932,19.7245697 L16.3708181,11.955178 Z"/>
        <polygon fill="#FFF" points="32.372 38.744 49.097 26.39 34.621 .796 16.411 11.261"/>
        <path fill="#FF6900" d="M49.9459302,26.3094195 L34.8374995,0 L15.6128878,11.0478271 L31.1048617,37.7234503 L32.3715881,38.744104 L49.9459302,26.3094195 Z M34.404852,1.59301034 L48.2656996,25.8153414 L32.2440758,37.1355655 L17.2089145,11.4753222 L34.404852,1.59301034 Z"/>
      </g>
      <g transform="translate(28.543)">
        <polygon fill="#FFE2D0" points="31.806 42.115 31.806 153.168 53.785 140.493 53.785 33.324"/>
        <polygon fill="#FFE2D0" points="31.806 85.971 31.806 94.72 53.785 82.045 53.785 77.18"/>
        <polygon fill="#FFF" points="8.784 138.832 31.233 151.926 31.233 41.324 38.587 45.702 20.313 13.669 1.598 24.139 8.784 28.295"/>
        <path fill="#FFE2D0" d="M39.6336554,47.4357471 L20.5819299,12.7007861 L0.154977073,24.1287224 L8.07016636,28.7067931 L8.07031069,139.241886 L31.9467467,153.1685 L31.946622,42.5795033 L39.6336554,47.4357471 Z M20.043359,14.6371381 L37.087822,44.683538 L30.519611,39.6961356 L30.5194863,150.68408 L9.49730204,138.42213 L9.49744637,27.8830193 L3.04094023,24.1494731 L20.043359,14.6371381 Z"/>
        <polygon fill="#FFF" points="39.634 47.436 60.111 32.31 42.388 .975 20.092 13.788"/>
        <path fill="#FFE2D0" d="M61.1505304,32.2115327 L42.652756,0 L19.1153988,13.526237 L38.0827585,46.1861255 L39.6336554,47.4357471 L61.1505304,32.2115327 Z M42.1230508,1.95037768 L59.0933661,31.6066156 L39.4775376,45.4663577 L21.0694695,14.0496339 L42.1230508,1.95037768 Z"/>
      </g>
      <g transform="translate(64.935 45.604)">
        <polygon fill="#FF6900" points="25.978 34.398 25.978 125.103 43.93 114.751 43.93 27.218"/>
        <polygon fill="#FF6900" points="25.978 70.219 25.978 77.364 43.93 67.012 43.93 63.039"/>
        <polygon fill="#FFF" points="7.174 113.394 25.51 124.089 25.51 33.752 31.517 37.328 16.591 11.164 1.305 19.716 7.174 23.11"/>
        <path fill="#FF6900" d="M32.3715881,38.744104 L16.8107067,10.3736235 L0.126580652,19.7076211 L6.59147126,23.4468528 L6.59158919,113.728622 L26.0931502,125.103465 L26.0930484,34.7776688 L32.3715881,38.744104 Z M16.3708181,11.955178 L30.2922273,36.4961817 L24.9275083,32.4226201 L24.9274065,123.074264 L7.75711316,113.059069 L7.75723104,22.7740189 L2.48374932,19.7245697 L16.3708181,11.955178 Z"/>
        <polygon fill="#FFF" points="32.372 38.744 49.097 26.39 34.621 .796 16.411 11.261"/>
        <path fill="#FF6900" d="M49.9459302,26.3094195 L34.8374995,0 L15.6128878,11.0478271 L31.1048617,37.7234503 L32.3715881,38.744104 L49.9459302,26.3094195 Z M34.404852,1.59301034 L48.2656996,25.8153414 L32.2440758,37.1355655 L17.2089145,11.4753222 L34.404852,1.59301034 Z"/>
      </g>
    </g>
    <g transform="translate(104.18 128.918)">
      <polygon fill="#FF6900" points="63.051 72.202 106.31 47.09 45.27 12.019 2.132 36.909"/>
      <polygon fill="#FFF" fill-opacity=".82" points="63.051 72.202 106.31 47.09 45.27 12.019 2.132 36.909"/>
      <polygon fill="#FF6900" points="63.051 66.455 108.339 40.7 108.339 35.95 45.27 6.273 0 25.852 0 30.981"/>
      <polygon fill="#FFF" points="63.181 61.14 106.44 36.029 45.4 .958 2.262 25.848"/>
      <path fill="#FFE2D0" d="M78.9228379,24.7085103 L94.5887346,32.9583142 L88.2517356,36.6596216 L72.8591235,28.0982289 L78.9228379,24.7085103 Z M78.9428449,26.3426942 L75.8091699,28.0948513 L88.2337313,35.005792 L91.6283861,33.0233021 L78.9428449,26.3426942 Z M45.7727264,6.52484187 L54.4108179,11.2613812 L22.229785,30.4473915 L13.357223,25.4487631 L45.7727264,6.52484187 Z M45.7945597,8.17513723 L16.243967,25.4266306 L22.2091547,28.7868073 L51.5179221,11.3136008 L45.7945597,8.17513723 Z"/>
      <path fill="#FF6900" d="M45.2695865,0.128877316 L107.746419,36.0255364 L63.0510755,61.9707005 L0.696942413,25.846669 L45.2695865,0.128877316 Z M45.2711632,1.78615639 L3.56704529,25.8489871 L63.0503629,60.3098337 L104.873718,36.0315151 L45.2711632,1.78615639 Z M62.1825626,45.6943371 L68.5587774,49.4757399 L62.1821677,53.2573769 L55.640917,49.4718181 L62.1825626,45.6943371 Z M62.1726083,47.358524 L58.511227,49.4731801 L62.1730869,51.5921455 L65.7425268,49.4755744 L62.1726083,47.358524 Z M70.8589067,40.3793925 L77.2351211,44.1607953 L70.8585119,47.942432 L64.3172612,44.1568736 L70.8589067,40.3793925 Z M52.9252776,40.3155634 L59.301492,44.0969661 L52.9248828,47.8786029 L46.3836321,44.0930445 L52.9252776,40.3155634 Z M70.8491142,42.0436313 L67.1872543,44.1578084 L70.8495932,46.2772529 L74.4190327,44.1606816 L70.8491142,42.0436313 Z M52.915242,41.9799426 L49.2538612,44.0941197 L52.9157211,46.2135642 L56.484682,44.0969929 L52.915242,41.9799426 Z M43.4317379,35.4510066 L49.8079523,39.2324093 L43.4313431,43.0140462 L36.8900924,39.2284877 L43.4317379,35.4510066 Z M61.6016213,35.0006188 L67.9778361,38.7820215 L61.6012269,42.5636584 L55.0599762,38.7780999 L61.6016213,35.0006188 Z M79.44045,34.9367897 L85.8166644,38.7181924 L79.4400552,42.4998293 L72.8988045,38.7142708 L79.44045,34.9367897 Z M43.421797,37.1151805 L39.7604159,39.2298364 L43.4222759,41.3488021 L46.9917155,39.2322307 L43.421797,37.1151805 Z M61.5917484,36.6650499 L57.9303671,38.779227 L61.5922269,40.8986716 L65.1611879,38.7821002 L61.5917484,36.6650499 Z M79.4303269,36.6013612 L75.7689456,38.7155383 L79.4312845,40.834504 L83.0002454,38.7179326 L79.4303269,36.6013612 Z M34.1744528,30.4064769 L40.5506675,34.1878797 L34.174058,37.9695165 L27.6328073,34.183958 L34.1744528,30.4064769 Z M52.1080817,30.136062 L58.4842965,33.9174648 L52.1076868,37.6991016 L45.5664364,33.9135431 L52.1080817,30.136062 Z M70.1831646,29.5580159 L76.5593794,33.3394187 L70.1827698,37.1210556 L63.6415191,33.335497 L70.1831646,29.5580159 Z M34.164431,32.070845 L30.5030498,34.1850221 L34.1649099,36.3044666 L37.7338706,34.1878952 L34.164431,32.070845 Z M52.0983029,31.8002878 L48.4364431,33.9144649 L52.098782,36.0339094 L55.6677429,33.917338 L52.0983029,31.8002878 Z M70.1734396,31.222301 L66.5115793,33.3369569 L70.1734396,35.4559226 L73.7424001,33.3393512 L70.1734396,31.222301 Z M42.8507968,25.0915323 L49.2270116,28.8729351 L42.850402,32.6545719 L36.3091513,28.8690134 L42.8507968,25.0915323 Z M60.689625,24.6934592 L67.0658398,28.4748619 L60.6892302,32.2564987 L54.1479795,28.4709403 L60.689625,24.6934592 Z M42.840937,26.7559523 L39.1795559,28.8701294 L42.8414159,30.9895739 L46.4103767,28.8730025 L42.840937,26.7559523 Z M60.6795156,26.3580177 L57.0181344,28.4721948 L60.6804732,30.5911605 L64.2494342,28.4745891 L60.6795156,26.3580177 Z M51.4323401,19.6489295 L57.8085549,23.4303322 L51.4319452,27.2119691 L44.8906945,23.4264106 L51.4323401,19.6489295 Z M69.507423,19.4636253 L75.8836374,23.245028 L69.5070282,27.0266649 L62.9657775,23.2411064 L69.507423,19.4636253 Z M51.4226284,21.3132034 L47.7607686,23.4278593 L51.4226284,25.546825 L54.9915893,23.4302536 L51.4226284,21.3132034 Z M69.4977646,21.1278837 L65.8359048,23.2425396 L69.4977646,25.3615053 L73.0672046,23.2449339 L69.4977646,21.1278837 Z M60.2501376,14.4190956 L66.6263524,18.2004984 L60.2497432,21.9821352 L53.7084925,18.1965767 L60.2501376,14.4190956 Z M60.2403988,16.0835482 L56.5790176,18.1977252 L60.2408779,20.3171698 L63.8098383,18.2001195 L60.2403988,16.0835482 Z"/>
    </g>
  </g>
</svg>
