<svg width="512" height="512" xmlns="http://www.w3.org/2000/svg">

 <g>
  <title>background</title>
  <rect fill="none" id="canvas_background" height="602" width="802" y="-1" x="-1"/>
 </g>
 <g>
  <title>Layer 1</title>
  <path fill="#f4721c" id="svg_1" d="m466.27,286.69c8.77,-14.85 13.73,-30.69 13.73,-49.84c0,-44.015 -37.218,-85.58 -85.82,-85.58l-36.48,0c4.92,-12.81 8.85,-28.13 8.85,-46.54c0,-72.794 -37.69,-104.73 -95.27,-104.73c-61.607,0 -58.093,94.933 -71.76,108.6c-22.747,22.747 -49.615,66.447 -68.76,83.4l-98.76,0c-17.673,0 -32,14.327 -32,32l0,240c0,17.673 14.327,32 32,32l64,0c14.893,0 27.408,-10.174 30.978,-23.95c44.509,1.001 75.06,39.94 177.802,39.94c7.22,0 15.22,0.01 22.22,0.01c77.117,0 111.986,-39.423 112.94,-95.33c13.319,-18.425 20.299,-43.122 17.34,-66.99c9.854,-18.452 13.664,-40.343 8.99,-62.99zm-61.75,53.83c12.56,21.13 1.26,49.41 -13.94,57.57c7.7,48.78 -17.608,65.9 -53.12,65.9l-37.82,0c-71.639,0 -118.029,-37.82 -171.64,-37.82l0,-186.17l10.92,0c28.36,0 67.98,-70.89 94.54,-97.46c28.36,-28.36 18.91,-75.63 37.82,-94.54c47.27,0 47.27,32.98 47.27,56.73c0,39.17 -28.36,56.72 -28.36,94.54l103.99,0c21.11,0 37.73,18.91 37.82,37.82c0.09,18.9 -12.82,37.81 -22.27,37.81c13.489,14.555 16.371,45.236 -5.21,65.62zm-316.52,91.48c0,13.255 -10.745,24 -24,24s-24,-10.745 -24,-24s10.745,-24 24,-24s24,10.745 24,24z"/>
  <text stroke="#f89316" font-weight="bold" xml:space="preserve" text-anchor="start" font-family="Helvetica, Arial, sans-serif" font-size="134" id="svg_2" y="429.45313" x="145.65625" stroke-width="4" fill="#fcb510">100%</text>
 </g>
</svg>