<svg xmlns="http://www.w3.org/2000/svg" width="300" height="300" viewBox="0 0 300 300">
  <g fill="none" transform="translate(18 8)">
    <g transform="translate(.286 109.778)">
      <path fill="#FF6900" d="M262.709564,173.335684 L262.709564,152.693767 C262.709564,151.282041 261.965831,149.974731 260.752316,149.253379 L142.503864,78.9627286 C136.042771,75.1220488 128.001906,75.1086067 121.528009,78.9276631 L2.31144655,149.255425 C1.09141469,149.975142 0.342683654,151.286132 0.342683654,152.702631 L0.342683654,172.913697 L0.342683654,172.913697 L262.709564,173.335684 Z" transform="rotate(180 131.526 124.704)"/>
      <path fill="#FFF" d="M142.293021,148.381699 L260.146401,79.8612852 C262.057321,78.7502694 262.705771,76.3005062 261.594755,74.389587 C261.248605,73.7942176 260.754684,73.2982404 260.160758,72.9496201 L142.366591,3.80728304 C135.953105,0.0427212189 128.007702,0.0303944577 121.582565,3.77503797 L2.90220752,72.9433205 C0.992457083,74.0563454 0.346583176,76.5067884 1.45960779,78.416539 C1.81061273,79.0188003 2.31283004,79.5189429 2.91653939,79.8674516 L121.656535,148.413564 C128.044245,152.101056 135.916729,152.0889 142.293021,148.381699 Z"/>
      <path fill="#FF6900" d="M121.294664,3.28105099 L2.61430621,72.4493335 C0.431734302,73.7213616 -0.306407322,76.5218686 0.965620806,78.7044405 C1.36676928,79.3927393 1.94073193,79.9643307 2.6306855,80.3626261 L121.370681,148.908739 C127.935827,152.698661 136.026991,152.686167 142.580402,148.875988 L260.433783,80.3555746 C262.617691,79.0858421 263.358777,76.2861133 262.089044,74.1022051 C261.693444,73.421783 261.128963,72.854952 260.45019,72.4565291 L142.656024,3.31419172 C136.064386,-0.554941251 127.898276,-0.567610382 121.294664,3.28105099 Z M142.077159,4.30037436 L259.871325,73.4427117 C260.380405,73.7415287 260.803766,74.1666523 261.100465,74.6769688 C262.052765,76.3148997 261.49695,78.4146968 259.85902,79.3669963 L142.005639,147.88741 C135.806467,151.491633 128.152662,151.503451 121.942389,147.91839 L3.20239335,79.3722771 C2.68492815,79.0735555 2.25445618,78.6448619 1.95359483,78.1286374 C0.999573731,76.4917088 1.55317992,74.3913285 3.1901089,73.4373074 L121.870467,4.26902501 C128.117127,0.628399355 135.841825,0.640383746 142.077159,4.30037436 Z"/>
    </g>
    <g transform="translate(68.611)">
      <polygon fill="#FF6900" points="70.118 220.7 131.118 185.614 60.941 145.227 .22 180.278"/>
      <polygon fill="#FFF" fill-opacity=".82" points="70.118 220.7 131.118 185.614 60.941 145.227 .22 180.278"/>
      <g transform="translate(.22)">
        <g transform="translate(53.557)">
          <polygon fill="#FFE2D0" points="0 76.332 69.465 116.065 69.465 39.501 0 0"/>
          <path fill="#FFF" d="M5.71760736,67.6935157 L62.2032776,98.7380379 L62.2032776,102.650065 L5.71760736,71.760439 L5.71760736,67.6935157 Z M5.71760736,58.032705 L62.2032776,89.0772272 L62.2032776,92.9892542 L5.71760736,62.0996277 L5.71760736,58.032705 Z M5.71760736,46.8550298 L62.2032776,77.8995518 L62.2032776,81.8115793 L5.71760736,50.9219526 L5.71760736,46.8550298 Z M34.7322853,51.398335 L62.2032776,66.7502174 L62.2032776,70.662245 L34.7322853,55.4652578 L34.7322853,51.398335 Z M34.7322853,41.264289 L62.2032776,56.6161714 L62.2032776,60.5281987 L34.7322853,45.3312118 L34.7322853,41.264289 Z M5.71760736,13.1871459 L28.9132602,26.8406202 L28.9132602,52.5421169 L5.71760736,39.2908286 L5.71760736,13.1871459 Z M34.7322853,30.7390133 L62.2032776,46.0908958 L62.2032776,50.0029231 L34.7322853,34.8059362 L34.7322853,30.7390133 Z"/>
        </g>
        <g transform="translate(29.543 12.579)">
          <polygon fill="#FF6900" points="0 76.332 69.465 116.065 69.465 39.501 0 0"/>
          <path fill="#FFF" d="M5.71760736,67.6935157 L62.2032776,98.7380379 L62.2032776,102.650065 L5.71760736,71.760439 L5.71760736,67.6935157 Z M5.71760736,58.032705 L62.2032776,89.0772272 L62.2032776,92.9892542 L5.71760736,62.0996277 L5.71760736,58.032705 Z M5.71760736,46.8550298 L62.2032776,77.8995518 L62.2032776,81.8115793 L5.71760736,50.9219526 L5.71760736,46.8550298 Z M34.7322853,51.398335 L62.2032776,66.7502174 L62.2032776,70.662245 L34.7322853,55.4652578 L34.7322853,51.398335 Z M34.7322853,41.264289 L62.2032776,56.6161714 L62.2032776,60.5281987 L34.7322853,45.3312118 L34.7322853,41.264289 Z M5.71760736,13.1871459 L28.9132602,26.8406202 L28.9132602,52.5421169 L5.71760736,39.2908286 L5.71760736,13.1871459 Z M34.7322853,30.7390133 L62.2032776,46.0908958 L62.2032776,50.0029231 L34.7322853,34.8059362 L34.7322853,30.7390133 Z"/>
        </g>
        <g transform="translate(.098 29.16)">
          <polygon fill="#FFE2D0" points="0 76.332 69.465 116.065 69.465 39.501 0 0"/>
          <path fill="#FFF" d="M5.71760736,67.6935157 L62.2032776,98.7380379 L62.2032776,102.650065 L5.71760736,71.760439 L5.71760736,67.6935157 Z M5.71760736,58.032705 L62.2032776,89.0772272 L62.2032776,92.9892542 L5.71760736,62.0996277 L5.71760736,58.032705 Z M5.71760736,46.8550298 L62.2032776,77.8995518 L62.2032776,81.8115793 L5.71760736,50.9219526 L5.71760736,46.8550298 Z M34.7322853,51.398335 L62.2032776,66.7502174 L62.2032776,70.662245 L34.7322853,55.4652578 L34.7322853,51.398335 Z M34.7322853,41.264289 L62.2032776,56.6161714 L62.2032776,60.5281987 L34.7322853,45.3312118 L34.7322853,41.264289 Z M5.71760736,13.1871459 L28.9132602,26.8406202 L28.9132602,52.5421169 L5.71760736,39.2908286 L5.71760736,13.1871459 Z M34.7322853,30.7390133 L62.2032776,46.0908958 L62.2032776,50.0029231 L34.7322853,34.8059362 L34.7322853,30.7390133 Z"/>
        </g>
      </g>
    </g>
  </g>
</svg>
