<svg xmlns="http://www.w3.org/2000/svg" width="300" height="300" viewBox="0 0 300 300">
  <g fill="none" transform="translate(7 26)">
    <g transform="translate(24.667 175.204)">
      <polygon fill="#FFE2D0" points="62.423 71.483 105.252 46.621 44.82 11.899 2.111 36.542"/>
      <polygon fill="#FFF" fill-opacity=".82" points="62.423 71.483 105.252 46.621 44.82 11.899 2.111 36.542"/>
      <polygon fill="#FF6900" points="62.423 65.794 107.261 40.295 107.261 35.592 44.82 6.21 0 25.595 0 30.673"/>
      <polygon fill="#FFF" points="62.552 60.532 105.381 35.67 44.948 .948 2.239 25.591"/>
      <path fill="#FF6900" d="M78.137536,24.4626545 L93.6475532,32.6303707 L87.3736088,36.2948492 L72.1341571,27.8186445 L78.137536,24.4626545 Z M78.157344,26.0805778 L75.0548498,27.8153005 L87.3557837,34.6574757 L90.7166609,32.6947121 L78.157344,26.0805778 Z M45.3172764,6.45991807 L53.8694167,11.1493276 L22.0085931,30.1444324 L13.2243153,25.1955416 L45.3172764,6.45991807 Z M45.3388925,8.09379258 L16.0823355,25.1736293 L21.9881681,28.5003714 L51.0053059,11.2010276 L45.3388925,8.09379258 Z"/>
      <path fill="#FFE2D0" d="M44.8191429,0.127594955 L106.674316,35.6670734 L62.4237016,61.3540766 L0.690007662,25.5894882 L44.8191429,0.127594955 Z M44.8207039,1.76838369 L3.53155231,25.5917832 L62.4229961,59.7097359 L103.830198,35.6729925 L44.8207039,1.76838369 Z M61.5638306,45.2396671 L67.8766005,48.983444 L61.5634397,52.7274527 L55.0872761,48.9795612 L61.5638306,45.2396671 Z M61.5539754,46.8872949 L57.9290258,48.9809096 L61.5544492,51.0787908 L65.0883723,48.9832801 L61.5539754,46.8872949 Z M70.153843,39.9776075 L76.4666124,43.7213844 L70.153452,47.4653929 L63.6772884,43.7175018 L70.153843,39.9776075 Z M52.398658,39.9144135 L58.7114274,43.6581904 L52.398267,47.4021989 L45.9221034,43.6543077 L52.398658,39.9144135 Z M70.1441479,41.6252867 L66.5187244,43.7184272 L70.1446221,45.8167828 L73.6785448,43.7212718 L70.1441479,41.6252867 Z M52.3887222,41.5622317 L48.763773,43.6553722 L52.3891965,45.7537278 L55.9226453,43.6582168 L52.3887222,41.5622317 Z M42.9995813,35.0982602 L49.3123508,38.8420371 L42.9991904,42.5860457 L36.5230268,38.8381545 L42.9995813,35.0982602 Z M60.9886698,34.652354 L67.3014397,38.3961308 L60.9882794,42.1401394 L54.5121158,38.3922482 L60.9886698,34.652354 Z M78.6499978,34.5891599 L84.9627672,38.3329368 L78.6496069,42.0769454 L72.1734433,38.3290541 L78.6499978,34.5891599 Z M42.9897393,36.7458752 L39.3647898,38.8394898 L42.9902135,40.9373713 L46.5241362,38.8418603 L42.9897393,36.7458752 Z M60.9788952,36.3002236 L57.3539455,38.393364 L60.979369,40.4917196 L64.5128178,38.3962086 L60.9788952,36.3002236 Z M78.6399754,36.2371686 L75.0150257,38.3303091 L78.6409234,40.4281905 L82.1743723,38.3326796 L78.6399754,36.2371686 Z M33.8344085,30.1039249 L40.1471782,33.8477018 L33.8340177,37.5917104 L27.357854,33.8438191 L33.8344085,30.1039249 Z M51.5895933,29.8362007 L57.9023632,33.5799775 L51.5892024,37.3239862 L45.113039,33.5760949 L51.5895933,29.8362007 Z M69.4848247,29.2639063 L75.7975946,33.0076832 L69.4844338,36.7516919 L63.0082701,33.0038006 L69.4848247,29.2639063 Z M33.8244864,31.7517321 L30.1995369,33.8448726 L33.8249605,35.9432282 L37.3584092,33.8477172 L33.8244864,31.7517321 Z M51.5799119,31.483867 L47.9544884,33.5770075 L51.5803861,35.675363 L55.113835,33.5798521 L51.5799119,31.483867 Z M69.4751965,30.9116313 L65.8497726,33.0052459 L69.4751965,35.1031274 L73.0086449,33.0076164 L69.4751965,30.9116313 Z M42.4244207,24.8418654 L48.7371905,28.5856422 L42.4240298,32.3296508 L35.9478662,28.5817596 L42.4244207,24.8418654 Z M60.0857481,24.4477531 L66.398518,28.1915299 L60.0853572,31.9355386 L53.6091936,28.1876473 L60.0857481,24.4477531 Z M42.4146591,26.4897239 L38.7897096,28.5828644 L42.4151331,30.68122 L45.9485819,28.585709 L42.4146591,26.4897239 Z M60.0757394,26.0957489 L56.4507897,28.1888894 L60.0766874,30.2867708 L63.6101363,28.1912599 L60.0757394,26.0957489 Z M50.9205755,19.4534178 L57.2333454,23.1971946 L50.9201846,26.9412032 L44.4440209,23.193312 L50.9205755,19.4534178 Z M68.8158069,19.2699574 L75.1285763,23.0137342 L68.815416,26.7577428 L62.3392523,23.0098516 L68.8158069,19.2699574 Z M50.9109605,21.1011317 L47.285537,23.1947463 L50.9109605,25.2926277 L54.4444093,23.1971168 L50.9109605,21.1011317 Z M68.8062446,20.917656 L65.1808212,23.0112705 L68.8062446,25.109152 L72.3401677,23.013641 L68.8062446,20.917656 Z M59.6506338,14.275622 L65.9634036,18.0193989 L59.6502433,21.7634075 L53.1740797,18.0155162 L59.6506338,14.275622 Z M59.6409919,15.9235129 L56.0160423,18.0166533 L59.6414662,20.1150089 L63.1749146,18.0190238 L59.6409919,15.9235129 Z"/>
    </g>
    <g transform="matrix(-1 0 0 1 75.532 0)">
      <polygon fill="#FFE2D0" points="74.368 162.478 65.32 168.09 .235 130.368 10.87 125.751"/>
      <polygon fill="#FFF" fill-opacity=".82" points="74.368 162.478 65.32 168.09 .235 130.368 10.87 125.751"/>
      <polygon fill="#FF6900" points="58.566 25.345 58.566 29.837 52.942 26.959 53.541 22.938"/>
      <polygon fill="#FF6900" points="74.368 157.109 74.368 36.603 10.697 0 5.181 2.653 5.38 6.824 10.697 117.988 70.005 159.662"/>
      <g transform="translate(5.074 2.466)">
        <polygon fill="#FFF" points="64.378 156.112 64.378 37.824 .706 1.221 .706 119.209"/>
        <path fill="#FFE2D0" d="M-1.87404174e-13,0 L-1.87404174e-13,119.616308 L65.084459,157.337598 L65.084459,37.4149 L-1.87404174e-13,0 Z M1.4125104,2.44164328 L63.6711506,38.231766 L63.6711506,154.88559 L1.4125104,118.801577 L1.4125104,2.44164328 Z"/>
      </g>
      <g transform="translate(2.826 3.768)">
        <polygon fill="#FFF" points="64.378 156.112 64.378 37.824 .706 1.221 .706 119.209"/>
        <path fill="#FFE2D0" d="M-1.87404174e-13,0 L-1.87404174e-13,119.616308 L65.084459,157.337598 L65.084459,37.4149 L-1.87404174e-13,0 Z M1.4125104,2.44164328 L63.6711506,38.231766 L63.6711506,154.88559 L1.4125104,118.801577 L1.4125104,2.44164328 Z"/>
      </g>
      <g transform="translate(.235 5.383)">
        <polygon fill="#FFF" points="64.378 156.112 64.378 37.824 .706 1.221 .706 119.209"/>
        <path fill="#FFE2D0" d="M-1.87404174e-13,0 L-1.87404174e-13,119.616308 L65.084459,157.337598 L65.084459,37.4149 L-1.87404174e-13,0 Z M1.4125104,2.44164328 L63.6711506,38.231766 L63.6711506,154.88559 L1.4125104,118.801577 L1.4125104,2.44164328 Z"/>
      </g>
      <polygon fill="#FFF" points="17.214 15.87 28.984 9.289 57.124 25.336 45.292 31.896"/>
      <path fill="#FF6900" d="M28.9875461,8.47761194 L58.5656657,25.3451184 L45.3264942,32.6844909 L45.3341702,32.6891184 L45.3341702,43.3732939 L15.8888124,26.7216063 L15.8884577,15.9270779 L15.7777778,15.8641504 L28.9875461,8.47761194 Z M28.9806001,10.0999594 L18.650159,15.87651 L45.2967062,31.0853458 L55.6827228,25.3276344 L28.9806001,10.0999594 Z M8.9370613,98.2372122 C11.442442,97.3253282 14.3388925,98.9638707 15.406464,101.897 C16.4740356,104.830129 15.3084609,107.947127 12.8030798,108.859011 C10.2976992,109.770895 7.40124864,108.132353 6.3336771,105.199224 C5.26610556,102.266095 6.43168018,99.1490961 8.9370613,98.2372122 Z M14.0787391,102.380252 C13.262645,100.138052 11.1418993,98.9383309 9.42031344,99.5649371 C7.69872758,100.191543 6.84530805,102.473772 7.66140206,104.715971 C8.47749608,106.958172 10.5982418,108.157892 12.3198277,107.531286 C14.0414136,106.90468 14.8948331,104.622452 14.0787391,102.380252 Z M8.9370613,76.9590105 C11.442442,76.047126 14.3388925,77.685669 15.406464,80.6187979 C16.4740356,83.5519268 15.3084609,86.6689252 12.8030798,87.5808097 C10.2976992,88.4926936 7.40124864,86.8541507 6.3336771,83.9210222 C5.26610556,80.9878933 6.43168018,77.8708944 8.9370613,76.9590105 Z M14.0787391,81.10205 C13.262645,78.8598502 11.1418993,77.6601292 9.42031344,78.2867354 C7.69872758,78.9133411 6.84530805,81.1955699 7.66140206,83.4377696 C8.47749608,85.6799699 10.5982418,86.8796904 12.3198277,86.2530847 C14.0414136,85.6264785 14.8948331,83.3442498 14.0787391,81.10205 Z M8.9370613,55.6808087 C11.442442,54.7689243 14.3388925,56.4074673 15.406464,59.3405962 C16.4740356,62.2737246 15.3084609,65.3907235 12.8030798,66.3026075 C10.2976992,67.2144919 7.40124864,65.575949 6.3336771,62.6428201 C5.26610556,59.7096916 6.43168018,56.5926927 8.9370613,55.6808087 Z M14.0787391,59.8238483 C13.262645,57.5816485 11.1418993,56.3819275 9.42031344,57.0085332 C7.69872758,57.6351394 6.84530805,59.9173682 7.66140206,62.1595679 C8.47749608,64.4017677 10.5982418,65.6014887 12.3198277,64.974883 C14.0414136,64.3482768 14.8948331,62.0660481 14.0787391,59.8238483 Z M8.9370613,34.4026068 C11.442442,33.4907227 14.3388925,35.1292656 15.406464,38.062394 C16.4740356,40.9955229 15.3084609,44.1125218 12.8030798,45.0244058 C10.2976992,45.9362902 7.40124864,44.2977473 6.3336771,41.3646184 C5.26610556,38.4314894 6.43168018,35.314491 8.9370613,34.4026068 Z M14.0787391,38.5456466 C13.262645,36.3034464 11.1418993,35.1037258 9.42031344,35.7303315 C7.69872758,36.3569377 6.84530805,38.6391664 7.66140206,40.8813662 C8.47749608,43.123566 10.5982418,44.323287 12.3198277,43.6966808 C14.0414136,43.0700751 14.8948331,40.7878464 14.0787391,38.5456466 Z"/>
      <path fill="#FFE2D0" d="M20.4663361,110.213251 L20.515559,110.237828 L57.3585941,131.366925 C57.5842361,131.496328 57.6622527,131.784149 57.5328495,132.00979 C57.4126893,132.219315 57.1559344,132.301551 56.9392066,132.208622 L56.8899837,132.184046 L20.0469487,111.054949 C19.8213071,110.925546 19.74329,110.637725 19.8726932,110.412083 C19.9928535,110.202558 20.2496083,110.120323 20.4663361,110.213251 Z M20.4663361,106.414037 L20.515559,106.438613 L57.3585941,127.56771 C57.5842361,127.697113 57.6622527,127.984934 57.5328495,128.210576 C57.4126893,128.4201 57.1559344,128.502336 56.9392066,128.409407 L56.8899837,128.384831 L20.0469487,107.255734 C19.8213071,107.126331 19.74329,106.83851 19.8726932,106.612868 C19.9928535,106.403343 20.2496083,106.321108 20.4663361,106.414037 Z M20.4663361,89.084154 L20.515559,89.1087306 L57.3585941,110.237828 C57.5842361,110.367231 57.6622527,110.655051 57.5328495,110.880693 C57.4126893,111.090218 57.1559344,111.172454 56.9392066,111.079525 L56.8899837,111.054949 L20.0469487,89.9258514 C19.8213071,89.7964482 19.74329,89.5086276 19.8726932,89.2829856 C19.9928535,89.0734614 20.2496083,88.9912257 20.4663361,89.084154 Z M20.4663361,85.2849395 L20.515559,85.3095157 L57.3585941,106.438613 C57.5842361,106.568016 57.6622527,106.855837 57.5328495,107.081478 C57.4126893,107.291003 57.1559344,107.373239 56.9392066,107.28031 L56.8899837,107.255734 L20.0469487,86.1266369 C19.8213071,85.9972337 19.74329,85.7094126 19.8726932,85.4837711 C19.9928535,85.2742465 20.2496083,85.1920108 20.4663361,85.2849395 Z M20.4663361,67.1499919 L20.515559,67.1745685 L57.3585941,88.3036655 C57.5842361,88.4330687 57.6622527,88.7208893 57.5328495,88.9465313 C57.4126893,89.1560559 57.1559344,89.2382916 56.9392066,89.1453629 L56.8899837,89.1207867 L20.0469487,67.9916897 C19.8213071,67.8622865 19.74329,67.5744655 19.8726932,67.3488235 C19.9928535,67.1392993 20.2496083,67.0570636 20.4663361,67.1499919 Z M16.131355,74.8298705 C16.4492739,75.013659 16.570313,75.4072599 16.4206506,75.7345466 L16.3893984,75.7950682 L10.7354397,85.575334 L7.71552267,79.3541346 C7.54513774,79.0031322 7.6915574,78.5804644 8.04255973,78.41008 C8.37291485,78.2497175 8.7667522,78.3699846 8.95399392,78.6773216 L8.98661483,78.7371166 L10.8438076,82.5639337 L15.1661572,75.0879139 C15.3614324,74.7501253 15.7935659,74.6345953 16.131355,74.8298705 Z M20.4663361,63.3507774 L20.515559,63.3753536 L57.3585941,84.5044506 C57.5842361,84.6338538 57.6622527,84.9216748 57.5328495,85.1473164 C57.4126893,85.356841 57.1559344,85.4390767 56.9392066,85.3461484 L56.8899837,85.3215718 L20.0469487,64.1924748 C19.8213071,64.0630716 19.74329,63.7752505 19.8726932,63.549609 C19.9928535,63.3400843 20.2496083,63.2578487 20.4663361,63.3507774 Z M20.4663361,46.2251159 L20.515559,46.2496925 L57.3585941,67.3787895 C57.5842361,67.5081927 57.6622527,67.7960133 57.5328495,68.0216553 C57.4126893,68.2311799 57.1559344,68.3134156 56.9392066,68.2204868 L56.8899837,68.1959107 L20.0469487,47.0668132 C19.8213071,46.93741 19.74329,46.6495894 19.8726932,46.4239474 C19.9928535,46.2144233 20.2496083,46.1321876 20.4663361,46.2251159 Z M20.4663361,42.4259014 L20.515559,42.4504775 L57.3585941,63.5795745 C57.5842361,63.7089777 57.6622527,63.9967988 57.5328495,64.2224403 C57.4126893,64.431965 57.1559344,64.5142006 56.9392066,64.4212719 L56.8899837,64.3966957 L20.0469487,43.2675988 C19.8213071,43.1381955 19.74329,42.8503745 19.8726932,42.624733 C19.9928535,42.4152083 20.2496083,42.3329727 20.4663361,42.4259014 Z M16.131355,53.1270195 C16.4492739,53.310808 16.570313,53.7044089 16.4206506,54.0316956 L16.3893984,54.0922173 L10.7354397,63.8724831 L7.71552267,57.6512836 C7.54513774,57.3002813 7.6915574,56.8776135 8.04255973,56.7072286 C8.37291485,56.5468665 8.7667522,56.6671337 8.95399392,56.9744707 L8.98661483,57.0342656 L10.8438076,60.8607761 L15.1661572,53.385063 C15.3614324,53.0472744 15.7935659,52.9317443 16.131355,53.1270195 Z M16.131355,32.1540846 C16.4492739,32.3378731 16.570313,32.7314739 16.4206506,33.0587606 L16.3893984,33.1192824 L10.7354397,42.8995479 L7.71552267,36.678349 C7.54513774,36.3273466 7.6915574,35.9046788 8.04255973,35.7342939 C8.37291485,35.5739318 8.7667522,35.694199 8.95399392,36.0015355 L8.98661483,36.0613309 L10.8438076,39.8881061 L15.1661572,32.4121282 C15.3614324,32.0743394 15.7935659,31.9588094 16.131355,32.1540846 Z"/>
    </g>
    <g transform="translate(122.105 39.091)">
      <path fill="#FFE2D0" d="M83.2771881,130.244866 L60.1248728,143.541522 C55.6909536,146.087976 50.2480074,146.129404 45.7758406,143.650738 L21.0536736,129.948656 C18.5510921,128.561618 17.6467651,125.408459 19.0338029,122.905877 C19.501326,122.062342 20.1950262,121.366053 21.036814,120.895392 L48.7671862,105.390745 L48.7671862,105.390745 L83.2843041,125.34798 C84.6354094,126.129167 85.0974195,127.857732 84.3162325,129.208837 C84.0671471,129.639643 83.708716,129.997033 83.2771881,130.244866 Z" transform="matrix(-1 0 0 1 103.08 0)"/>
      <path fill="#FFF" fill-opacity=".82" d="M83.2771881,130.244866 L60.1248728,143.541522 C55.6909536,146.087976 50.2480074,146.129404 45.7758406,143.650738 L21.0536736,129.948656 C18.5510921,128.561618 17.6467651,125.408459 19.0338029,122.905877 C19.501326,122.062342 20.1950262,121.366053 21.036814,120.895392 L48.7671862,105.390745 L48.7671862,105.390745 L83.2843041,125.34798 C84.6354094,126.129167 85.0974195,127.857732 84.3162325,129.208837 C84.0671471,129.639643 83.708716,129.997033 83.2771881,130.244866 Z" transform="matrix(-1 0 0 1 103.08 0)"/>
      <g transform="matrix(-1 0 0 1 162.177 0)">
        <path fill="#FF6900" d="M126.474419,0.963917627 C126.883245,0.116404076 127.901708,-0.239223059 128.749222,0.169602187 C138.080347,4.67076882 141.086974,11.6697726 137.382586,20.5234304 C137.019393,21.3914788 136.021275,21.8007449 135.153226,21.4375517 C134.285178,21.0743586 133.875912,20.0762401 134.239105,19.2081917 C137.218108,12.0882369 135.02349,6.97947417 127.268735,3.23872025 C126.421221,2.829895 126.065594,1.81143118 126.474419,0.963917627 Z M120.148147,124.248678 L120.42065,133.773342 C120.561822,138.707653 116.676215,142.822144 111.741905,142.963315 C111.656723,142.965753 111.571509,142.966971 111.486291,142.966971 C106.406712,142.966971 102.2889,138.849159 102.2889,133.76958 L102.2889,124.850323 L120.148147,124.248678 Z M146.902911,110.815064 L147.153916,119.588327 C147.28395,124.133369 143.70488,127.923267 139.159838,128.053302 C139.081375,128.055547 139.002884,128.05667 138.924389,128.05667 C134.245539,128.05667 130.452581,124.263712 130.452581,119.584862 L130.452581,111.369245 L146.902911,110.815064 Z M87.3443884,108.256221 L87.6326456,118.331532 C87.7819787,123.551108 83.6717348,127.903469 78.4521586,128.052802 C78.362051,128.055381 78.2719109,128.05667 78.1817666,128.05667 C72.8085238,128.05667 68.4526495,123.700795 68.4526495,118.327553 L68.4526495,108.892649 L87.3443884,108.256221 Z M44.1032404,37.8610508 C42.1526948,34.9348287 39.4918153,32.5511478 36.3694919,30.9329697 L29.804439,27.5305597 L29.804439,27.5305597 L27.3517964,28.0055125 L28.7736249,35.1285372 C29.4521145,38.5276095 30.8875409,41.7301932 32.9733264,44.4985031 L33.8359402,45.6433869 L33.8359402,45.6433869 L44.1032404,37.8610508 Z"/>
        <path fill="#FFF" d="M42.1528207,39.1024834 C40.2022751,36.1762613 37.5413957,33.7925804 34.4190722,32.1744024 L27.8540193,28.7719923 L27.8540193,28.7719923 L27.8540193,34.8346153 C27.8540193,39.1825034 29.2691246,43.4122697 31.8855206,46.8848196 L31.8855206,46.8848196 L31.8855206,46.8848196 L42.1528207,39.1024834 Z"/>
        <path fill="#FF6900" d="M35.5918704,32.2065212 L27.3428884,27.9313967 L27.3428884,35.9479954 C27.3428884,39.6842923 28.5589394,43.3190828 30.8073027,46.3031701 L31.785759,47.6018033 L42.844931,39.2192497 L41.9923927,37.9402658 C40.378103,35.5184971 38.1759344,33.5457405 35.5918704,32.2065212 Z M28.3653281,29.6125437 L35.1214899,33.1141345 L35.328939,33.2235608 C37.6699564,34.4801731 39.6667745,36.2944421 41.1417833,38.5072605 L41.4608445,38.9856637 L31.9854984,46.1677355 L31.6237578,45.6880113 C29.5089607,42.8811965 28.3651503,39.462334 28.3651503,35.9479954 L28.3653281,29.6125437 Z"/>
        <path fill="#FFF" d="M72.2173611,14.2525343 C100.104042,-1.84784854 136.174151,8.41965545 152.782203,37.1856464 C166.053608,60.172394 162.881537,88.0155812 146.841732,106.4909 L147.018567,112.69822 C147.158629,117.593727 143.303579,121.675862 138.408073,121.815924 C138.323559,121.818341 138.239016,121.819551 138.154469,121.819551 C135.520983,121.819551 133.148056,120.703968 131.482484,118.9196 C127.819062,120.950606 124.020602,122.533022 120.149081,123.684664 L120.278062,128.202527 C120.418124,133.098034 116.563074,137.180168 111.667567,137.32023 C111.583054,137.323857 111.498511,137.323857 111.413963,137.323857 C106.37433,137.323857 102.2889,133.238427 102.2889,128.198794 L102.288884,126.014355 C82.2765949,125.448766 62.7796534,114.515234 51.7955974,95.4902902 C35.1875449,66.7242995 44.3306799,30.3529172 72.2173611,14.2525343 Z"/>
        <path fill="#FF6900" d="M152.782203,37.1856464 C166.057606,60.1793179 162.879624,88.0323551 146.827235,106.507593 L147.018567,113.209351 C147.158629,118.104858 143.303579,122.186993 138.408073,122.327054 C138.323559,122.329472 138.239016,122.330681 138.154469,122.330681 C135.355225,122.330681 132.850373,121.070244 131.176498,119.085956 C127.601671,121.04165 123.899791,122.570502 120.128701,123.690722 L120.278062,128.9094 C120.418124,133.804906 116.563074,137.887041 111.667567,138.027102 C111.583054,138.03073 111.498511,138.03073 111.413963,138.03073 C106.37433,138.03073 102.2889,133.9453 102.2889,128.905667 L102.288959,126.014357 C82.2766434,125.448793 62.7796671,114.515257 51.7955974,95.4902902 C35.1875449,66.7242995 44.3306799,30.3529172 72.2173611,14.2525343 C100.104042,-1.84784854 136.174151,8.41965545 152.782203,37.1856464 Z M151.896898,37.6967773 C135.567646,9.41368206 100.119977,-0.676641982 72.7284918,15.1378392 C45.3370072,30.9523203 36.3516496,66.6960643 52.6809021,94.9791594 C63.1116956,113.045824 81.7367655,124.196953 101.712117,124.972191 L102.317837,124.992503 L103.31124,125.020578 L103.311162,128.905667 C103.311162,133.38072 106.93891,137.008468 111.413963,137.008468 C111.488764,137.008468 111.563561,137.008468 111.638331,137.005259 C115.926178,136.882582 119.311829,133.341675 119.258878,129.068361 L119.256218,128.938645 L119.084378,122.934532 L119.837605,122.710782 C123.439999,121.640674 126.9354,120.203578 130.28466,118.406505 L130.685867,118.189128 L131.419025,117.788036 L131.957875,118.426814 C133.489088,120.241984 135.733807,121.308419 138.154469,121.308419 C138.229269,121.308419 138.304067,121.30735 138.378837,121.305211 C142.666684,121.182534 146.052334,117.641627 145.999382,113.368242 L145.996722,113.238525 L145.794009,106.138145 L146.055561,105.837116 C162.135352,87.3303405 164.713739,59.8961958 151.896898,37.6967773 Z"/>
        <ellipse cx="65.923" cy="79.81" fill="#FFF" rx="47.569" ry="49.068" transform="rotate(-30 65.923 79.81)"/>
        <path fill="#FF6900" d="M65.9232735,30.7414423 C92.1947199,30.7414423 113.491935,52.7101912 113.491935,79.8100166 C113.491935,106.909842 92.1947199,128.878591 65.9232735,128.878591 C39.6518274,128.878591 18.3546122,106.909842 18.3546122,79.8100166 C18.3546122,52.7101912 39.6518274,30.7414423 65.9232735,30.7414423 Z M65.9232735,31.7637043 C40.2236309,31.7637043 19.3768742,53.267791 19.3768742,79.8100166 C19.3768742,106.352242 40.2236309,127.856329 65.9232735,127.856329 C91.6229163,127.856329 112.469673,106.352242 112.469673,79.8100166 C112.469673,53.267791 91.6229163,31.7637043 65.9232735,31.7637043 Z" transform="rotate(-30 65.923 79.81)"/>
        <path fill="#FFF" d="M23.3715874,120.554582 C26.4025496,120.862303 30.7589353,121.016163 36.4407446,121.016163 C44.9634584,121.016163 51.8724829,110.951037 51.8724829,98.5350752 C51.8724829,86.1191132 44.9634584,76.0539874 36.4407446,76.0539874 C30.7589353,76.0539874 26.0023345,76.0482038 22.170942,76.0366366 L23.3715874,120.554582 Z" transform="rotate(-30 37.022 98.526)"/>
        <path fill="#FF6900" d="M21.6458634,75.5238689 L22.8728269,121.017648 L23.320026,121.06305 C26.3713385,121.372837 30.7432394,121.527245 36.4408108,121.527245 C45.2956219,121.527245 52.3836803,111.201302 52.3836803,98.5350264 C52.3836803,85.8687512 45.2956219,75.5428075 36.4408108,75.5428075 L22.7267559,75.527074 L21.6458634,75.5238689 Z M23.8705383,120.089171 L22.6963,76.5493303 L30.8378513,76.5629628 L36.4407864,76.5650695 C44.6314273,76.5650695 51.3614183,86.3693777 51.3614183,98.5350264 C51.3614183,110.700675 44.6314273,120.504983 36.4408108,120.504983 L35.1849056,120.502382 C30.5363589,120.482777 26.8462949,120.352368 24.1178386,120.111752 L23.8705383,120.089171 Z" transform="rotate(-30 37.015 98.526)"/>
        <ellipse cx="24.973" cy="105.189" fill="#FFF" rx="15.432" ry="22.831" transform="rotate(-30 24.973 105.189)"/>
        <path fill="#FF6900" d="M24.9730248,82.3580677 C33.4957386,82.3580677 40.4047632,92.5796384 40.4047632,105.188585 C40.4047632,117.797531 33.4957386,128.019102 24.9730248,128.019102 C16.450311,128.019102 9.54128634,117.797531 9.54128634,105.188585 C9.54128634,92.5796384 16.450311,82.3580677 24.9730248,82.3580677 Z M24.9730248,83.3803293 C17.1189738,83.3803293 10.5635483,93.0787672 10.5635483,105.188585 C10.5635483,117.298402 17.1189738,126.99684 24.9730248,126.99684 C32.8270758,126.99684 39.3825013,117.298402 39.3825013,105.188585 C39.3825013,93.0787672 32.8270758,83.3803293 24.9730248,83.3803293 Z" transform="rotate(-30 24.973 105.189)"/>
        <path fill="#FF6900" d="M100.528584,56.2023058 L88.5140827,50.4763773 C87.9687951,50.2165018 87.3319626,50.2338592 86.8016408,50.5230513 L84.9678236,51.5230582 L84.9678236,51.5230582 L86.1026415,58.4259867 C86.6720243,61.889458 88.5529162,65.0007915 91.3550877,67.1144768 L95.6222132,70.3331802 L95.6222132,70.3331802 L96.8698892,69.7698118 C97.8813456,69.3131045 98.5951558,68.378161 98.7692002,67.282107 L100.528584,56.2023058 L100.528584,56.2023058 Z"/>
        <path fill="#FFF" d="M98.3283041,57.3567789 L87.4872663,52.1629949 C86.5489359,51.7134545 85.4238443,52.1096967 84.9743038,53.048027 C84.8525771,53.3021086 84.7893873,53.5802567 84.7893873,53.8619922 L84.7893873,58.211812 C84.7893873,62.3738575 87.0882237,66.1955371 90.7649979,68.1459102 L92.4666967,69.0485894 C94.0752006,69.9018332 96.0708418,69.2895735 96.9240852,67.6810691 C97.1174906,67.3164687 97.2407164,66.9187952 97.2873589,66.5087176 L98.3283041,57.3567789 L98.3283041,57.3567789 Z"/>
        <path fill="#FF6900" d="M84.4622142,52.225101 C84.3411185,52.4778652 84.2782561,52.7545712 84.2782561,53.0348457 L84.2782561,59.0319098 C84.2782561,62.8785302 86.4028728,66.4105788 89.8009978,68.2131405 L93.4089027,70.1269816 C94.8220359,70.876589 96.5752833,70.3386954 97.3248907,68.9255623 C97.4948041,68.6052465 97.6030632,68.2558752 97.6440402,67.8956064 L98.8772803,57.0530237 L86.9621484,51.3446567 C86.0526175,50.9089136 84.9666999,51.2719734 84.4979261,52.1543643 L84.4622142,52.225101 Z M86.5204691,52.2665782 L97.7793005,57.6600043 L96.6283272,67.7800786 C96.6018125,68.0131937 96.531763,68.2392577 96.4218187,68.4465207 C95.9367787,69.3609008 94.8023245,69.7089497 93.8879443,69.2239097 L90.2800394,67.310069 C87.216156,65.6848081 85.3005181,62.5001739 85.3005181,59.0319098 L85.3005181,53.0348457 C85.3005181,52.9074484 85.3290919,52.7816727 85.3841356,52.6667799 C85.5874127,52.2424773 86.0961665,52.0633011 86.5204691,52.2665782 Z M79.9306673,25.2014427 L101.194137,12.8634535 C103.409779,11.5778423 106.143843,11.5755718 108.361617,12.8575012 C109.508776,13.5205883 109.901193,14.9880826 109.238106,16.1352415 C109.028551,16.4977767 108.727759,16.7991513 108.365629,17.0094063 L87.3230907,29.2268569 C85.0628633,30.5391612 82.2817366,30.57717 79.9864905,29.3271237 C78.8385469,28.7019261 78.414778,27.2645116 79.0399755,26.1165684 C79.247417,25.7356792 79.5555301,25.4191135 79.9306673,25.2014427 Z"/>
        <g fill="#FF6900" transform="translate(12.738 64.403)">
          <ellipse cx="3.237" cy="35.411" rx="2.215" ry="3.408" transform="rotate(-19 3.237 35.41)"/>
          <ellipse cx="18.071" cy="44.128" rx="2.215" ry="3.408" transform="rotate(-19 18.07 44.128)"/>
          <ellipse cx="41.037" cy="19.457" rx="2.692" ry="3.408" transform="rotate(-19 41.037 19.457)"/>
          <ellipse cx="13.431" cy="4.43" rx="2.692" ry="3.408" transform="rotate(-19 13.43 4.43)"/>
        </g>
        <path fill="#FF6900" d="M39.9157628,101.864084 L51.988278,95.8701697 C54.1339097,101.9308 54.4795618,106.960051 53.025234,110.957921 C51.5709058,114.955792 49.9053546,117.30031 48.0285799,117.991476 L38.3318383,123.333769 C40.695176,119.915354 41.8768449,117.06797 41.8768449,114.791616 C41.8768449,111.377085 41.7693458,106.822012 41.0879168,105.188717 C40.6336308,104.099854 40.2429128,102.991643 39.9157628,101.864084 Z M105.114201,53.4418691 C115.493855,69.6146499 119.057762,84.6428207 115.80592,98.5263816 C112.554079,112.409943 107.208528,121.358225 99.7692664,125.37123 L87.9108841,123.234538 L96.1316145,117.808615 C100.864384,113.604295 104.271761,109.702871 106.353745,106.104342 C109.476721,100.706548 112.820466,92.0274759 113.300417,85.7287567 C113.620383,81.5296104 112.995582,75.3696636 111.42601,67.2489172 L105.114201,53.4418691 Z"/>
      </g>
    </g>
  </g>
</svg>
